<?xml version="1.0"?><svg width="309.136" height="312.484" xmlns="http://www.w3.org/2000/svg">
 <g>
  <title>Layer 1</title>
  <path d="m225.089005,160.016006c-0.834,-14.18399 -4.158005,-27.757996 -12.193008,-39.646996c-7.403992,-10.958 -17.544998,-20.271004 -29.590988,-25.835999c-24.653,-11.386002 -53.729004,-8.541 -75.029999,8.432999c-4.812996,3.835999 -9.184998,8.223999 -13.072998,12.990997c-4.295998,5.272003 -7.256004,10.890999 -9.938004,17.114006c-5.681,13.175995 -6.663994,28.554001 -3.453995,42.47699c6.176994,26.770004 27.465996,48.979004 54.423996,55.171005c21.238998,4.876999 44.404999,-0.539993 61.380997,-14.151001c7.876999,-6.311996 14.473007,-14.257004 19.13501,-23.222c5.370987,-10.324005 7.661987,-21.780014 8.338989,-33.330002" stroke-miterlimit="10" stroke-linecap="square" stroke-width="0.2904" stroke="#FFFFFF" fill="#FFFFFF" id="svg_1"/>
  <path d="m224.798004,160.016006c-0.565002,14.190002 -4.098007,27.414001 -11.977005,39.331009c-7.072006,10.699997 -16.755997,19.888 -28.307999,25.571991c-24.524994,12.069 -53.707001,8.770996 -75.60099,-7.307999c-11.428009,-8.388992 -18.883003,-19.621994 -24.170998,-32.634995c-5.190002,-12.776001 -6.201004,-28.45401 -2.808006,-41.830002c3.412003,-13.457001 10.761002,-25.922005 20.783005,-35.479004c9.965996,-9.505997 22.138,-15.573997 35.586006,-18.437996c21.549988,-4.590004 45.361984,1.797997 61.871994,16.389c7.173004,6.336998 12.992004,14.166 17.188004,22.757004c4.896988,10.027985 7.008987,20.536987 7.435989,31.640991c-24.096008,0 -48.195007,0 -72.292007,0c24.097,0 48.197006,0 72.292007,0" fill="#007f00" id="svg_2"/>
  <path d="m232.057007,160.016006c-4.022003,0 -8.048004,0 -12.069,0c-0.946991,0 -2.423996,-0.554001 -2.481995,0.878998c-0.084,2.130005 -0.169998,4.255005 -0.253998,6.382004c2.417999,0 4.837997,0 7.257996,0c-2.419998,-0.483994 -4.839996,-0.966995 -7.257996,-1.453003c-0.768997,4.781998 -1.731003,9.529999 -2.906006,14.229004c2.419006,0.483994 4.839005,0.968002 7.259003,1.453003c-2.225998,-0.969009 -4.453003,-1.938004 -6.679001,-2.904999c-2.628998,6.720993 -5.488998,13.024994 -9.294998,19.168991c2.229004,0.87001 4.455002,1.740005 6.68399,2.610001c-1.644989,-1.644989 -3.291992,-3.289993 -4.937988,-4.937988c-5.472,7.422989 -12.037003,13.987991 -19.459,19.457001c1.645996,1.644989 3.292999,3.289993 4.937988,4.934998c-0.965988,-2.225998 -1.935989,-4.450012 -2.899994,-6.678009c-5.979996,3.701004 -12.334,6.731003 -18.878998,9.294006c0.968994,2.225998 1.938004,4.449997 2.904999,6.677994c-0.483002,-2.418991 -0.972,-4.838989 -1.455002,-7.257996c-4.697998,1.173996 -9.445999,2.138992 -14.227997,2.901001c0.483994,2.418991 0.966995,4.841003 1.451004,7.261002c0,-2.419998 0,-4.84201 0,-7.261002c-4.936005,0.194992 -9.876007,0.190002 -14.812012,0c0,2.418991 0,4.841003 0,7.261002c0.484009,-2.419998 0.96701,-4.84201 1.451004,-7.261002c-4.682999,-0.779007 -9.332001,-1.75 -13.936996,-2.901001c-0.483994,2.419006 -0.966003,4.839005 -1.451004,7.257996c0.966003,-2.227997 1.934998,-4.451996 2.901001,-6.677994c-6.650002,-2.602997 -12.875999,-5.391998 -18.874001,-9.294006c-0.968994,2.227997 -1.937996,4.452011 -2.905998,6.678009c1.645004,-1.645004 3.292,-3.290009 4.937004,-4.934998c-7.434006,-5.479004 -13.981003,-12.021011 -19.458,-19.457001c-1.743004,1.645996 -3.484001,3.292999 -5.228004,4.937988c2.228004,-0.869995 4.455002,-1.73999 6.682999,-2.610001c-3.507996,-6.140991 -6.43,-12.58699 -9.003998,-19.168991c-2.224998,0.968994 -4.453003,1.938004 -6.678001,2.904999c2.419998,-0.485001 4.839005,-0.969009 7.259003,-1.453003c-1.175003,-4.697006 -2.139,-9.444992 -2.905998,-14.229004c-2.419006,0.486008 -4.839005,0.969009 -7.259003,1.453003c2.419998,0 4.838997,0 7.259003,0c-0.197006,-4.936996 -0.189003,-9.875 0,-14.811005c-2.419006,0 -4.839005,0 -7.259003,0c2.419998,0.484009 4.838997,0.968002 7.259003,1.452011c0.783997,-4.682999 1.754997,-9.333008 2.905998,-13.938004c-2.418999,-0.483994 -4.839005,-0.968002 -7.259003,-1.451996c2.226013,0.871994 4.453003,1.741989 6.678001,2.612991c0.849998,-2.173996 1.748001,-4.328003 2.697998,-6.457993c1.893005,-4.240997 4.000999,-8.386002 6.306,-12.417007c-2.227997,-0.871994 -4.455994,-1.741997 -6.682999,-2.613998c1.743004,1.646004 3.484001,3.292 5.228004,4.938004c2.735001,-3.711998 5.441994,-7.475998 8.713997,-10.744003c3.268997,-3.270996 7.033997,-5.976997 10.745003,-8.711998c-1.645004,-1.740997 -3.292,-3.483002 -4.937004,-5.225998c0.969002,2.226997 1.938004,4.451996 2.905998,6.678001c5.993004,-3.595001 12.375999,-6.458 18.874008,-9.002007c-0.966003,-2.226997 -1.934998,-4.451996 -2.901001,-6.677994c0.483994,2.418999 0.966003,4.839996 1.450989,7.259995c4.605011,-1.151001 9.254013,-2.125 13.937012,-2.903c-0.484009,-2.419998 -0.96701,-4.840996 -1.451004,-7.261002c0,2.419006 0,4.840004 0,7.261002c4.934998,-0.188995 9.876999,-0.197998 14.811996,0c0,-2.419998 0,-4.840996 0,-7.261002c-0.483002,2.419006 -0.964996,4.840004 -1.44899,7.261002c4.778992,0.764 9.526993,1.728004 14.22699,2.903c0.484009,-2.418999 0.971008,-4.839996 1.455002,-7.259995c-0.968994,2.226997 -1.938004,4.451996 -2.906006,6.677994c6.502014,2.545006 12.81601,5.540001 18.879013,9.002007c0.966995,-2.227005 1.936996,-4.452003 2.901001,-6.678001c-1.646011,1.741997 -3.292007,3.484001 -4.937012,5.225998c7.434006,5.478996 13.979004,12.024002 19.457001,19.457001c1.646011,-1.646004 3.292999,-3.291 4.938004,-4.938004c-2.227997,0.872002 -4.455002,1.742004 -6.682999,2.614006c2.360992,3.811996 4.466995,7.778 6.332001,11.856995c0.938004,2.048004 1.813995,4.124008 2.645996,6.216995c0.054001,0.917007 0.438004,1.074005 1.149002,0.475006c0.556,-0.218994 1.113007,-0.438004 1.669998,-0.654007c1.393005,-0.543991 2.781006,-1.087997 4.175003,-1.632996c-2.419998,0.484009 -4.839996,0.96701 -7.259003,1.451996c1.150009,4.605011 2.121002,9.256012 2.906006,13.938004c2.417999,-0.483002 4.837997,-0.966995 7.257996,-1.451996c-2.419998,0 -4.839996,0 -7.257996,0c0.056,1.451996 -0.729004,7.656006 1.339996,7.580994c4.477997,-0.164001 8.985992,-0.031998 13.464996,-0.031998c-0.28299,-7.341995 -1.020996,-14.644989 -3.093002,-21.750992c-1.94899,-6.682999 -4.630997,-13.222008 -8.298996,-19.146004c-7.194,-11.632004 -17.044998,-21.600998 -29.007996,-28.284004c-25.218002,-14.088997 -57.041,-13.766998 -81.474007,1.942001c-5.633995,3.623001 -11.170998,7.876999 -15.857994,12.678001c-4.656006,4.770004 -8.281006,10.452003 -11.416,16.306999c-6.695,12.498001 -10.118004,25.804001 -9.999001,40.037003c0.236,27.977997 17.293999,54.660995 41.572998,67.94899c24.211006,13.250992 54.043007,12.897003 77.903008,-1.033997c11.441986,-6.681 21.701996,-16.541 28.348999,-28.028c7.278992,-12.584 10.75499,-26.207001 11.321991,-40.669998" fill="#010101" id="svg_3"/>
  <path d="m94.408997,160.016006c0.770004,-15.414001 5.880005,-29.778 16.974007,-40.783997c5.121994,-5.083 11.247993,-9.642998 17.881004,-12.541c7.306,-3.191002 15.319992,-4.357002 23.22699,-4.750999c0,9.839996 0,19.681992 0,29.521996c0,4.761002 0,9.521011 0,14.279999c0,2.537994 0,5.077011 0,7.61499c0,0.907013 0.572998,6.188004 -0.125992,6.636002c-0.850006,0.542999 -3.412003,0.021011 -4.338013,0.021011c-2.552994,0 -5.104996,0 -7.658997,0c-5.108002,0 -10.212997,0 -15.318993,0c-10.215004,0.001999 -20.426003,0.001999 -30.640007,0.001999" fill="#848484" id="svg_4"/>
  <path d="m94.408997,160.016006c0.770004,-15.414001 5.880005,-29.778 16.974007,-40.783997c5.121994,-5.083 11.247993,-9.642998 17.881004,-12.541c7.306,-3.191002 15.319992,-4.357002 23.22699,-4.750999" stroke-miterlimit="10" stroke-linecap="square" stroke-width="0.2904" stroke="#FFFFFF" fill="none" id="svg_5"/>
  <path d="m94.408997,160.016006c0.770004,-15.414001 5.880005,-29.778 16.974007,-40.783997c5.121994,-5.083 11.247993,-9.642998 17.881004,-12.541c7.306,-3.191002 15.319992,-4.357002 23.22699,-4.750999c0,9.839996 0,19.681992 0,29.521996c0,4.761002 0,9.521011 0,14.279999c0,2.537994 0,5.077011 0,7.61499c0,0.907013 0.572998,6.188004 -0.125992,6.636002c-0.850006,0.542999 -3.412003,0.021011 -4.338013,0.021011c-2.552994,0 -5.104996,0 -7.658997,0c-5.108002,0 -10.212997,0 -15.318993,0c-10.215004,0.001999 -20.426003,0.001999 -30.640007,0.001999" fill="#848484" id="svg_6"/>
  <path d="m94.408997,160.016006c0.770004,-15.414001 5.880005,-29.778 16.974007,-40.783997c5.121994,-5.083 11.247993,-9.642998 17.881004,-12.541c7.306,-3.191002 15.319992,-4.357002 23.22699,-4.750999" stroke-miterlimit="10" stroke-linecap="square" stroke-width="0.2904" stroke="#010101" fill="none" id="svg_7"/>
  <path d="m152.490997,101.650002c0,9.811996 0,19.625999 0,29.437996c0,4.779007 0,9.559998 0,14.337006c0,2.556 0,5.110001 0,7.664993c0,0.979004 0.617996,6.421997 -0.149994,6.916c-0.945007,0.613007 -3.943008,0.011002 -5.052002,0.011002c-2.518005,0 -5.035004,0 -7.555008,0c-5.035995,0 -10.070999,0 -15.106995,0c-10.072998,0 -20.143997,0 -30.218002,0" stroke-miterlimit="10" stroke-linecap="square" stroke-width="0.2904" stroke="#010101" fill="none" id="svg_8"/>
  <path d="m152.490997,101.940002c15.410004,0.731995 30.608002,5.690994 41.362,17.270996c4.962997,5.343002 9.479004,11.578995 12.287003,18.343002c2.945007,7.102997 4.046005,14.826996 4.427994,22.462006c-9.841995,0 -19.681992,0 -29.522995,0c-4.757996,0 -9.520996,0 -14.278992,0c-2.539001,0 -5.078003,0 -7.614014,0c-0.904999,0 -6.194,0.57399 -6.637985,-0.124008c-0.543015,-0.854004 -0.021011,-3.412003 -0.021011,-4.341003c0,-2.552994 0,-5.103989 0,-7.65799c0,-5.105011 0,-10.212006 0,-15.318008c-0.001999,-10.210999 -0.001999,-20.423996 -0.001999,-30.634995" fill="#010101" id="svg_9"/>
  <path d="m152.490997,101.940002c15.410004,0.731995 30.608002,5.690994 41.362,17.270996c4.962997,5.343002 9.479004,11.578995 12.287003,18.343002c2.945007,7.102997 4.046005,14.826996 4.427994,22.462006" stroke-miterlimit="10" stroke-linecap="square" stroke-width="0.2904" stroke="#FFFFFF" fill="none" id="svg_10"/>
  <path d="m152.490997,101.940002c15.410004,0.731995 30.608002,5.690994 41.362,17.270996c4.962997,5.343002 9.479004,11.578995 12.287003,18.343002c2.945007,7.102997 4.046005,14.826996 4.427994,22.462006c-9.841995,0 -19.681992,0 -29.522995,0c-4.757996,0 -9.520996,0 -14.278992,0c-2.539001,0 -5.078003,0 -7.614014,0c-0.904999,0 -6.194,0.57399 -6.637985,-0.124008c-0.543015,-0.854004 -0.021011,-3.412003 -0.021011,-4.341003c0,-2.552994 0,-5.103989 0,-7.65799c0,-5.105011 0,-10.212006 0,-15.318008c-0.001999,-10.210999 -0.001999,-20.423996 -0.001999,-30.634995" fill="#010101" id="svg_11"/>
  <path d="m152.490997,101.940002c15.410004,0.731995 30.608002,5.690994 41.362,17.270996c4.962997,5.343002 9.479004,11.578995 12.287003,18.343002c2.945007,7.102997 4.046005,14.826996 4.427994,22.462006" stroke-miterlimit="10" stroke-linecap="square" stroke-width="0.2904" stroke="#010101" fill="none" id="svg_12"/>
  <path d="m210.567993,160.016006c-9.84201,0 -19.682007,0 -29.52301,0c-2.770996,0 -28.513,0.729004 -28.619995,-0.436996c-0.369995,-4.063004 0.06601,-8.410995 0.06601,-12.503006c0,-5.046997 0,-10.095001 0,-15.14299c0,-10.095001 0,-20.190002 0,-30.284004" stroke-miterlimit="10" stroke-linecap="square" stroke-width="0.2904" stroke="#010101" fill="none" id="svg_13"/>
  <path d="m210.567993,160.016006c-0.768005,15.355011 -5.852005,29.734009 -16.880997,40.725998c-4.928009,4.912003 -10.896011,9.681 -17.32901,12.439011c-7.554001,3.23999 -15.707993,4.521988 -23.866989,4.909988c0,-9.841995 0,-19.68399 0,-29.520996c0,-4.759995 0,-9.520996 0,-14.279999c0,-2.537003 0,-5.074997 0,-7.613998c0,-0.906998 -0.573013,-6.190002 0.125992,-6.636002c0.850006,-0.542999 3.412003,-0.022003 4.337006,-0.022003c2.554993,0 5.106003,0 7.658997,0c5.104004,0 10.212006,0 15.317001,0c10.212006,-0.001999 20.42601,-0.001999 30.638,-0.001999" fill="#848484" id="svg_14"/>
  <path d="m210.567993,160.016006c-0.768005,15.355011 -5.852005,29.734009 -16.880997,40.725998c-4.928009,4.912003 -10.896011,9.681 -17.32901,12.439011c-7.554001,3.23999 -15.707993,4.521988 -23.866989,4.909988" stroke-miterlimit="10" stroke-linecap="square" stroke-width="0.2904" stroke="#FFFFFF" fill="none" id="svg_15"/>
  <path d="m210.567993,160.016006c-0.768005,15.355011 -5.852005,29.734009 -16.880997,40.725998c-4.928009,4.912003 -10.896011,9.681 -17.32901,12.439011c-7.554001,3.23999 -15.707993,4.521988 -23.866989,4.909988c0,-9.841995 0,-19.68399 0,-29.520996c0,-4.759995 0,-9.520996 0,-14.279999c0,-2.537003 0,-5.074997 0,-7.613998c0,-0.906998 -0.573013,-6.190002 0.125992,-6.636002c0.850006,-0.542999 3.412003,-0.022003 4.337006,-0.022003c2.554993,0 5.106003,0 7.658997,0c5.104004,0 10.212006,0 15.317001,0c10.212006,-0.001999 20.42601,-0.001999 30.638,-0.001999" fill="#848484" id="svg_16"/>
  <path d="m210.567993,160.016006c-0.768005,15.355011 -5.852005,29.734009 -16.880997,40.725998c-4.928009,4.912003 -10.896011,9.681 -17.32901,12.439011c-7.554001,3.23999 -15.707993,4.521988 -23.866989,4.909988" stroke-miterlimit="10" stroke-linecap="square" stroke-width="0.2904" stroke="#010101" fill="none" id="svg_17"/>
  <path d="m152.490997,218.091995c0,-9.841995 0,-19.68399 0,-29.520996c0,-4.759995 0,-9.520996 0,-14.279999c0,-2.537003 0,-5.074997 0,-7.613998c0,-0.906998 -0.572998,-6.190002 0.126007,-6.636002c0.849991,-0.542999 3.412003,-0.022003 4.33699,-0.022003c2.555008,0 5.106003,0 7.659012,0c5.103989,0 10.21199,0 15.316986,0c10.211014,0 20.425003,0 30.637009,0" stroke-miterlimit="10" stroke-linecap="square" stroke-width="0.2904" stroke="#010101" fill="none" id="svg_18"/>
  <path d="m152.490997,218.091995c-15.412994,-0.769989 -29.787994,-5.877991 -40.790001,-16.971008c-5.079994,-5.125 -9.642998,-11.248001 -12.542,-17.884995c-3.190994,-7.300995 -4.353996,-15.31601 -4.75,-23.221008c9.842003,0 19.684006,0 29.525002,0c4.758995,0 9.521004,0 14.280006,0c2.539001,0 5.078003,0 7.616989,0c0.906006,0 6.194,-0.570999 6.638,0.126007c0.542999,0.852005 0.021011,3.410004 0.021011,4.337997c0,2.556 0,5.104996 0,7.660995c0,5.104004 0,10.212006 0,15.31601c0.000992,10.213013 0.000992,20.425003 0.000992,30.636002" fill="#010101" id="svg_19"/>
  <path d="m152.490997,218.091995c-15.412994,-0.769989 -29.787994,-5.877991 -40.790001,-16.971008c-5.079994,-5.125 -9.642998,-11.248001 -12.542,-17.884995c-3.190994,-7.300995 -4.353996,-15.31601 -4.75,-23.221008" stroke-miterlimit="10" stroke-linecap="square" stroke-width="0.2904" stroke="#FFFFFF" fill="none" id="svg_20"/>
  <path d="m152.490997,218.091995c-15.412994,-0.769989 -29.787994,-5.877991 -40.790001,-16.971008c-5.079994,-5.125 -9.642998,-11.248001 -12.542,-17.884995c-3.190994,-7.300995 -4.353996,-15.31601 -4.75,-23.221008c9.842003,0 19.684006,0 29.525002,0c4.758995,0 9.521004,0 14.280006,0c2.539001,0 5.078003,0 7.616989,0c0.906006,0 6.194,-0.570999 6.638,0.126007c0.542999,0.852005 0.021011,3.410004 0.021011,4.337997c0,2.556 0,5.104996 0,7.660995c0,5.104004 0,10.212006 0,15.31601c0.000992,10.213013 0.000992,20.425003 0.000992,30.636002" fill="#010101" id="svg_21"/>
  <path d="m152.490997,218.091995c-15.412994,-0.769989 -29.787994,-5.877991 -40.790001,-16.971008c-5.079994,-5.125 -9.642998,-11.248001 -12.542,-17.884995c-3.190994,-7.300995 -4.353996,-15.31601 -4.75,-23.221008" stroke-miterlimit="10" stroke-linecap="square" stroke-width="0.2904" stroke="#010101" fill="none" id="svg_22"/>
  <path d="m94.408997,160.016006c9.842003,0 19.684006,0 29.525002,0c4.758995,0 9.521004,0 14.280006,0c2.539001,0 5.078003,0 7.616989,0c0.906006,0 6.194,-0.570999 6.638,0.126007c0.542999,0.85199 0.021011,3.410004 0.021011,4.337997c0,2.556 0,5.104996 0,7.660995c0,5.104004 0,10.212006 0,15.31601c0,10.210999 0,20.422989 0,30.633987" stroke-miterlimit="10" stroke-linecap="square" stroke-width="0.2904" stroke="#010101" fill="none" id="svg_23"/>
  <path d="m152.490997,159.725006c-5.26799,-3.895996 -10.531998,-7.791992 -15.798996,-11.688004c-2.759003,-2.041992 -5.518005,-4.082993 -8.276001,-6.123993c-1.902,-1.408997 -4.059998,-3.929001 -6.634003,-3.412003c-13.224998,2.654999 -26.596001,4.723007 -39.881996,7.06601c-27.292,4.813995 -54.582001,9.633987 -81.874002,14.446991c28.459001,0 56.919,0 85.377,0c14.296997,0 28.594002,0 42.890991,0c5.184998,0 10.382004,-0.11499 15.562012,0.078003c0.905991,0.037994 8.440002,0.718994 8.634995,-0.367004" fill="#FFFFFF" id="svg_24"/>
  <path d="m152.490997,159.725006c-5.26799,-3.895996 -10.531998,-7.791992 -15.798996,-11.688004c-2.759003,-2.041992 -5.518005,-4.082993 -8.276001,-6.123993c-1.902,-1.408997 -4.059998,-3.929001 -6.634003,-3.412003c-13.224998,2.654999 -26.596001,4.723007 -39.881996,7.06601c-27.292,4.813995 -54.582001,9.633987 -81.874002,14.446991c50.822,0 101.643991,0 152.464997,0" stroke-miterlimit="10" stroke-linecap="square" stroke-width="0.2904" stroke="#010101" fill="#007f00" id="svg_25"/>
  <path d="m152.490997,159.725006c-5.973999,2.985001 -11.944992,5.972 -17.918991,8.958008c-2.843002,1.421997 -5.686005,2.845001 -8.531006,4.26799c-2.584999,1.292007 -3.721001,1.544006 -6.518997,0.938004c-5.682007,-1.229004 -11.737,-1.447998 -17.512001,-2.11499c-6.917,-0.798004 -13.833,-1.594009 -20.748001,-2.393005c-27.079002,-3.124008 -54.158001,-6.242004 -81.235001,-9.365005c28.459,0 56.918999,0 85.376999,0c14.296997,0 28.594002,0 42.890999,0c5.184998,0 10.382004,-0.11499 15.561996,0.07901c0.904999,0.034988 8.439011,0.715988 8.634003,-0.37001" fill="#848484" id="svg_26"/>
  <path d="m152.490997,159.725006c-5.973999,2.985001 -11.944992,5.972 -17.918991,8.958008c-2.843002,1.421997 -5.686005,2.845001 -8.531006,4.26799c-2.584999,1.292007 -3.721001,1.544006 -6.518997,0.938004c-5.682007,-1.229004 -11.737,-1.447998 -17.512001,-2.11499c-6.917,-0.798004 -13.833,-1.594009 -20.748001,-2.393005c-27.079002,-3.124008 -54.158001,-6.242004 -81.235001,-9.365005c50.821999,0 101.64399,0 152.465004,0" stroke-miterlimit="10" stroke-linecap="square" stroke-width="0.2904" stroke="#010101" fill="none" id="svg_27"/>
  <path d="m152.490997,159.725006c5.971008,2.985001 11.942001,5.972 17.914001,8.958008c2.847,1.421997 5.688004,2.845001 8.531006,4.26799c2.587997,1.292007 3.722,1.544006 6.520996,0.938004c5.681,-1.229004 11.735992,-1.447998 17.511993,-2.11499c6.916,-0.798004 13.834,-1.594009 20.748001,-2.393005c27.077988,-3.124008 54.158005,-6.238998 81.233994,-9.365005c-28.457001,0 -56.915985,0 -85.372986,0c-14.298996,0 -28.593018,0 -42.889999,0c-5.186996,0 -10.383011,-0.11499 -15.563004,0.07901c-0.906998,0.034988 -8.440002,0.715988 -8.634003,-0.37001" fill="#FFFFFF" id="svg_28"/>
  <path d="m152.490997,159.725006c6.132996,2.985001 12.264008,5.972 18.397003,8.958008c2.923004,1.421997 5.841995,2.845001 8.761993,4.26799c2.657013,1.292007 3.820999,1.544006 6.695007,0.938004c5.834,-1.229004 12.054993,-1.447998 17.983994,-2.11499c7.104004,-0.798004 14.207001,-1.594009 21.309006,-2.393005c27.809006,-3.124008 55.618988,-6.238998 83.428009,-9.365005c-52.19101,0 -104.383026,0 -156.575012,0" stroke-miterlimit="10" stroke-linecap="square" stroke-width="0.2943" stroke="#010101" fill="#007f00" id="svg_29"/>
  <path d="m152.490997,158.854996c0,-52.946999 0,-105.892994 0,-158.839006c3.100006,27.426 6.203003,54.853002 9.303009,82.278001c1.534988,13.574997 3.066986,27.150002 4.603989,40.725998c0.290009,2.562004 1.708008,6.897995 0.278,9.182999c-1.673996,2.675995 -3.013992,5.615997 -4.491989,8.403c-3.229004,6.084015 -6.462006,12.166016 -9.693008,18.249008" fill="#848484" id="svg_30"/>
  <path d="m152.490997,158.854996c0,-52.946999 0,-105.892994 0,-158.839006c4.936996,43.653001 9.998001,87.294 14.807007,130.962007" stroke-miterlimit="10" stroke-linecap="square" stroke-width="0.2904" stroke="#010101" fill="none" id="svg_31"/>
  <path d="m152.490997,158.854996c0,-52.946999 0,-105.892994 0,-158.839006c-3.041992,27.426 -6.084,54.853002 -9.123993,82.278001c-1.507004,13.574997 -3.012009,27.150002 -4.516006,40.725998c-0.285995,2.570999 -1.682999,6.880997 -0.276001,9.182999c1.641006,2.682007 2.958008,5.615005 4.408997,8.403c3.167999,6.084015 6.338013,12.166016 9.507004,18.249008" fill="#FFFFFF" id="svg_32"/>
  <path d="m152.490997,158.854996c0,-52.946999 0,-105.892994 0,-158.839006c-4.843994,43.653001 -9.716003,87.305002 -14.522003,130.962007" stroke-miterlimit="10" stroke-linecap="square" stroke-width="0.2904" stroke="#010101" fill="#007f00" id="svg_33"/>
  <path d="m152.490997,159.725006c0,50.915009 0,101.82901 0,152.73999c3.130997,-26.096985 6.264008,-52.192993 9.395004,-78.293991c1.584,-13.205994 3.171005,-26.414993 4.753006,-39.623993c0.373993,-3.106003 0.875,-5.069 -0.578003,-7.947998c-1.557999,-3.076004 -3.110001,-6.156006 -4.666,-9.235001c-2.968002,-5.88002 -5.934998,-11.761017 -8.904007,-17.639008" fill="#FFFFFF" id="svg_34"/>
  <path d="m152.490997,158.725006c0,50.915009 0,101.82901 0,152.73999c4.934006,-41.135986 9.872009,-82.271988 14.807007,-123.41098" stroke-miterlimit="10" stroke-linecap="square" stroke-width="0.2904" stroke="#010101" fill="#007f00" id="svg_35"/>
  <path d="m152.490997,159.725006c0,50.915009 0,101.82901 0,152.73999c-3.117004,-26.496979 -6.235992,-52.992981 -9.354996,-79.48999c-1.548996,-13.175003 -3.098007,-26.348999 -4.647003,-39.520996c-0.151993,-1.274002 -0.509995,-2.621002 -0.427994,-3.908005c0.088989,-1.406998 1.037003,-2.746994 1.651993,-3.977997c1.556,-3.112 3.113998,-6.225998 4.669998,-9.337006c1.416,-2.830994 2.831009,-5.661987 4.247009,-8.492996c0.709,-1.417999 1.416,-2.834 2.125,-4.25c0.593994,-1.194 1.664993,-2.372009 1.735992,-3.763" fill="#848484" id="svg_36"/>
  <path d="m152.490997,159.725006c0,50.915009 0,101.82901 0,152.73999c-3.080002,-26.178986 -6.164001,-52.360992 -9.242996,-78.541992c-1.514008,-12.873993 -3.028,-25.748001 -4.544006,-38.623001c-0.327988,-2.787994 -1.143997,-5.427994 0.162003,-8.037994c1.561005,-3.121994 3.124008,-6.242996 4.684998,-9.365005c2.979004,-5.959 5.959,-11.918991 8.94101,-17.880997" stroke-miterlimit="10" stroke-linecap="square" stroke-width="0.2904" stroke="#010101" fill="none" id="svg_37"/>
  <path d="m152.854996,160.483994c5.878998,-3.973999 11.755005,-7.947998 17.632004,-11.921997c2.942001,-1.986008 5.882004,-3.973999 8.817993,-5.961014c1.763,-1.190994 4.307007,-3.807999 6.547012,-3.853989c3.052002,-0.064011 6.412003,1.024002 9.416992,1.552002c3.414001,0.602997 6.828003,1.19899 10.244003,1.799988c6.895004,1.209 13.787003,2.419006 20.681,3.629013c27.645996,4.852997 55.293976,9.705994 82.941986,14.559998c-52.09198,0.063004 -104.184982,0.134003 -156.280991,0.195999" fill="#848484" id="svg_38"/>
  <path d="m152.781006,159.145004c5.893997,-3.787003 11.786011,-7.574997 17.677002,-11.363998c2.949005,-1.894012 5.895996,-3.78801 8.841995,-5.682999c1.767014,-1.137009 4.324005,-3.638 6.561005,-3.667007c3.044998,-0.041992 6.391006,1.029999 9.387009,1.559998c3.401001,0.602005 6.804993,1.201996 10.209,1.802002c6.868988,1.212006 13.738998,2.423996 20.608978,3.636993c27.553009,4.861008 55.10701,9.725006 82.662003,14.586014" stroke-miterlimit="10" stroke-linecap="square" stroke-width="0.2904" stroke="#010101" fill="none" id="svg_39"/>
 </g>

</svg>